<svg id="Component_508_1" data-name="Component 508 – 1" xmlns="http://www.w3.org/2000/svg" width="25.842" height="23.819" viewBox="0 0 25.842 23.819">
  <path id="Path_1545" data-name="Path 1545" d="M944.215,1123.678a.84.84,0,0,1,.191-.2,1.668,1.668,0,0,0,.783-.98.277.277,0,0,1,.363-.223c.192.054.233.206.182.381a2.087,2.087,0,0,1-1.108,1.338C944.424,1124.091,944.215,1123.956,944.215,1123.678Z" transform="translate(-935.022 -1102.144)" fill="#fff"/>
  <path id="Path_1546" data-name="Path 1546" d="M948.578,1091.815c.113.06.215.083.267.147.23.283.457.568.661.87a.278.278,0,0,1-.106.446c-.21.1-.305-.046-.412-.208-.163-.248-.371-.466-.539-.71a.5.5,0,0,1-.089-.332C948.372,1091.949,948.5,1091.889,948.578,1091.815Z" transform="translate(-938.882 -1073.756)" fill="#fff"/>
  <path id="Path_1547" data-name="Path 1547" d="M913.81,1137.385a2.064,2.064,0,0,1-1.134-.54c-.13-.121-.159-.289-.021-.393a.457.457,0,0,1,.376-.033c.308.116.6.277.9.409.148.065.241.157.214.324C914.116,1137.337,913.987,1137.395,913.81,1137.385Z" transform="translate(-905.507 -1115.327)" fill="#fff"/>
  <path id="Path_1548" data-name="Path 1548" d="M904.36,1104.935a1.544,1.544,0,0,0-.091.295,7.132,7.132,0,0,0-.025.771c.007.184-.031.326-.218.369s-.3-.06-.342-.243a2.084,2.084,0,0,1,.1-1.234c.061-.151.181-.241.337-.176C904.221,1104.758,904.291,1104.87,904.36,1104.935Z" transform="translate(-897.181 -1085.768)" fill="#fff"/>
  <path id="Path_1549" data-name="Path 1549" d="M917.913,1087.441v.457c-.326.128-.628.266-.944.358a.372.372,0,0,1-.335-.116.379.379,0,0,1,.064-.349A1.714,1.714,0,0,1,917.913,1087.441Z" transform="translate(-909.284 -1069.668)" fill="#fff"/>
  <path id="Path_1550" data-name="Path 1550" d="M971.363,986.907c-.166.342-.3.648-.466.933a.313.313,0,0,1-.3.046.352.352,0,0,1-.143-.3,4.584,4.584,0,0,1,.363-.822.329.329,0,0,1,.3-.1C971.2,986.689,971.272,986.814,971.363,986.907Z" transform="translate(-959.482 -975.696)" fill="#fff"/>
  <path id="Path_1551" data-name="Path 1551" d="M837.973,957.7a2.171,2.171,0,1,1-4.341-.012,2.171,2.171,0,0,1,4.341.012Zm-3.754-.007a1.592,1.592,0,0,0,3.184.005,1.592,1.592,0,1,0-3.184-.005Z" transform="translate(-831.902 -946.662)" fill="#fff"/>
  <path id="Path_1552" data-name="Path 1552" d="M831.726,836.021a.92.92,0,0,0,.414-.165c.56-.571,1.1-1.157,1.641-1.749a.331.331,0,0,0,.043-.295c-.035-.078-.157-.129-.252-.165a.64.64,0,0,0-.225,0l-5.353.1c-.1,0-.193,0-.294,0,0-.131,0-.224,0-.316.017-1.17.06-2.339.042-3.508a2.882,2.882,0,0,0-.7-2.08,12.628,12.628,0,0,0-1-.839c.011-.026.042-.1.076-.176.331-.708.669-1.413.987-2.127.05-.112.064-.321,0-.382a.476.476,0,0,0-.4-.058c-.68.217-1.355.453-2.025.7a.893.893,0,0,0-.357.254c-.288.341-.548.7-.837,1.044a.439.439,0,0,1-.312.129c-.614-.024-1.226-.082-1.84-.1a35.171,35.171,0,0,0-5.569.248c-.254.032-.388.144-.356.33.042.244.217.261.422.236a34.892,34.892,0,0,1,6.175-.212c.3.017.594.04.93.063-.079.108-.125.175-.176.24q-2.545,3.235-5.094,6.466a1.21,1.21,0,0,0-.38,1.016c.01.052-.048.165-.087.172-.454.073-.91.131-1.374.194-.017-.088-.031-.145-.037-.2a3.907,3.907,0,0,0-7.672-.505c-.04.161-.076.323-.114.485v.909a1.025,1.025,0,0,1,.046.14,3.907,3.907,0,0,0,6.331,2.426,1.341,1.341,0,0,1,.676-.287c.291-.042.581-.095.872-.141.358-.057.716-.112,1.126-.175-.629.954-1.224,1.86-1.826,2.762a.531.531,0,0,1-.222.153,3.9,3.9,0,1,0,3.664.22c-.075-.046-.149-.094-.242-.152a29.1,29.1,0,0,1,1.655-2.478c.332.155.647.292.953.449a.731.731,0,0,0,.556.054q1.936-.52,3.875-1.026c.566-.149,1.134-.295,1.662-.432.179.672.31,1.334.53,1.965a4.355,4.355,0,0,0,4.193,2.874c.3,0,.458-.1.438-.3-.028-.255-.215-.282-.427-.282a3.593,3.593,0,0,1-.6-.038,3.783,3.783,0,0,1-3.244-2.981c-.121-.458-.193-.928-.287-1.393.087-.027.118-.039.15-.047Q829.8,836.529,831.726,836.021ZM814.64,837.5a.978.978,0,0,0-.461.221,3.337,3.337,0,1,1,1.057-2.57c.017.477.072.529.537.47.5-.063,1-.137,1.544-.213,0,.525.005,1.028-.008,1.53,0,.051-.113.131-.183.143C816.3,837.226,815.467,837.352,814.64,837.5Zm4.838.542c-.476.639-.883,1.33-1.318,2-.106.162-.206.328-.308.492-.192.31-.156.433.169.588a3.269,3.269,0,0,1,1.817,2.142,3.33,3.33,0,1,1-4.521-2.189.96.96,0,0,0,.391-.327q1.029-1.528,2.027-3.077a1.043,1.043,0,0,0,.155-.535c0-.858-.027-1.717-.031-2.576a.623.623,0,0,1,.116-.363q2.858-3.646,5.729-7.282c.328-.417.649-.839.983-1.25a.729.729,0,0,1,.3-.211c.431-.162.869-.307,1.372-.481l-1.311,2.795q-1.884,4.018-3.771,8.035a1.993,1.993,0,0,1-.271.42C820.495,836.832,819.949,837.41,819.478,838.043Zm7.488-1.357q-2.745.714-5.487,1.437a.286.286,0,0,1-.17.006c-.276-.121-.547-.251-.842-.389.349-.411.7-.787,1-1.2a5.844,5.844,0,0,0,.492-.873c.182-.36.34-.732.523-1.091a.312.312,0,0,1,.21-.161c1.439-.035,2.878-.06,4.317-.085a.425.425,0,0,1,.079.022c0,.08,0,.169,0,.258.009.614.014,1.229.032,1.843C827.128,836.589,827.1,836.651,826.966,836.686Zm.147-2.928-4.287.083,2.935-6.257a2.029,2.029,0,0,1,1.322,1.667c.08,1,.078,2,.089,3C827.178,832.744,827.135,833.239,827.113,833.759Zm.575,2.708v-2.146l5.224-.1c-.4.421-.749.8-1.107,1.17a.348.348,0,0,1-.16.068q-1.936.51-3.873,1.017A.4.4,0,0,1,827.688,836.467Z" transform="translate(-808 -824.241)" fill="#fff"/>
</svg>
