<svg xmlns="http://www.w3.org/2000/svg" width="36.239" height="27.554" viewBox="0 0 36.239 27.554">
  <g id="Icon_awesome-hand-point-right" data-name="Icon awesome-hand-point-right" transform="translate(0.75 0.75)">
    <path id="Icon_awesome-hand-point-right-2" data-name="Icon awesome-hand-point-right" d="M34.739,13.7a3.06,3.06,0,0,1-3.04,2.974H24.924a3.337,3.337,0,0,1-.427,4.813,3.108,3.108,0,0,1-1.116,4.228c.609,3.334-1.489,4.835-4.926,4.835-.186,0-.9-.014-1.086-.013-4.2.011-5.217-2.108-8.4-2.6A1.626,1.626,0,0,1,7.6,26.333V14.7h0A3.257,3.257,0,0,1,9.531,11.72c1.96-.882,6.474-3.327,7.3-5.246A2.892,2.892,0,0,1,19.541,4.5a3.259,3.259,0,0,1,2.993,4.54,9.222,9.222,0,0,1-.96,1.691H31.7a3.109,3.109,0,0,1,3.04,2.974Zm-28.225.024V26.755a1.628,1.628,0,0,1-1.628,1.628H1.628A1.628,1.628,0,0,1,0,26.755V13.727A1.628,1.628,0,0,1,1.628,12.1H4.885A1.628,1.628,0,0,1,6.514,13.727Zm-1.9,11.4a1.357,1.357,0,1,0-1.357,1.357A1.357,1.357,0,0,0,4.614,25.126Z" transform="translate(0 -4.5)" fill="none" stroke="#fff" stroke-width="1.5"/>
  </g>
</svg>
