<svg id="Layer_1" data-name="Layer 1" xmlns="http://www.w3.org/2000/svg" viewBox="0 0 372.71 451.06"><defs><style>.cls-1{fill:#272324;}.cls-2{fill:#878787;}.cls-3{fill:#6cca6c;}.cls-4{fill:#e7e7e8;}.cls-5{fill:#ad6b3a;}.cls-6{fill:#ffcd29;}.cls-7{fill:#fefefe;}.cls-8{fill:#ea4647;}</style></defs><title>Icon_for_call for tailor</title><path class="cls-1" d="M170.06,408.44H67.2c-14.15,0-22.45-8.36-22.45-22.6q0-145.69,0-291.39C44.75,80,53,71.72,67.43,71.71q20.58,0,41.15,0a7.52,7.52,0,0,0,4.85-1.36,13.66,13.66,0,0,1,8.44-2.51c4.61.06,9.24-.15,13.84.07,2.84.14,3.74-.6,3.83-3.62.42-13.84,7.16-23.69,20-28.75,20.24-8,41.1,6.16,42.74,28.56.09,1.25-1,3.54,1.26,3.61s4.87,1.27,6.79-2c13.05-22.09,32.48-33,58.22-32.19,29.16.92,55.34,25.44,58.23,54.53,2.57,25.82-7.21,45.92-28.57,60.41A4.64,4.64,0,0,0,296,153q.07,32.91,0,65.83V385.31c0,15-8.13,23.13-23.06,23.13ZM273,157.91a57.13,57.13,0,0,1-15.68,0c-22.84-3.2-39.14-15.37-49.14-35.91-1.57-3.21-3.13-3.94-6.32-3.92-21.2.12-42.4.07-63.6,0a21.5,21.5,0,0,1-4.82-.39c-6.67-1.59-10.25-6.68-10.15-14.56,0-2.78.31-5.05-3.77-4.8a8.93,8.93,0,0,1-5.83-2.19,8.63,8.63,0,0,0-5.91-1.76c-12.22.07-24.44.13-36.66,0-2.81,0-3.53.74-3.53,3.53q.1,142.17,0,284.34c0,2.66.76,3.29,3.34,3.29q76.69-.12,153.4,0c2.88,0,3.51-.87,3.47-3.6-.15-11.59-.09-23.19-.05-34.79,0-5.34,1.55-6.81,7-6.81,11.34,0,22.69-.12,34,.07,3.23,0,4.34-.56,4.33-4.14q-.19-87.18-.09-174.35Zm-8.16-7.55c29,.59,54.77-22.53,55.06-54.53.28-30.08-24.49-54.7-54.59-54.88-28.64-.17-54.94,21.63-55.06,54.58A54,54,0,0,0,264.81,150.36Zm-102.37-75c-13.2,0-26.41,0-39.61,0-2.9,0-5.47.6-7.18,3.15a7.5,7.5,0,0,0-.62,8.11c1.48,2.8,3.92,3.9,7.09,3.89q36.81-.06,73.63,0c6.53,0,6.5,0,7.67-6.35a30.5,30.5,0,0,1,1.46-5.77c1.12-2.76-.11-3-2.45-3C189.1,75.43,175.77,75.4,162.44,75.4Zm4.21,23.23c-11,0-21.94,0-32.91,0-1,0-2.29-.65-3,.74a7.77,7.77,0,0,0,7.06,11.11c21.07,0,42.13,0,63.2.06,2.46,0,3.31-.38,2.38-3a14.26,14.26,0,0,1-.78-5.86c.24-2.89-1.07-3.13-3.45-3.11C188.34,98.69,177.49,98.63,166.65,98.63ZM170.79,41c-13.24-.11-23.53,9.9-24.1,23.41-.09,2-.09,3.91,2.8,3.37,2.1-.4,5.3,1.7,5.27-3.17a15.76,15.76,0,0,1,15.12-15.93c8.27-.49,15.58,5.79,16.75,14.38.69,5.11.69,5,5.61,4.77,1.53-.09,2.1-.42,2.17-2.11A23.93,23.93,0,0,0,170.79,41Zm64.46,337.81,31-31.06H237c-1.29,0-1.73.65-1.73,1.85C235.26,359.35,235.25,369.15,235.25,378.77ZM170.89,67.87c2.24,0,4.48-.05,6.72,0,1.28,0,1.63-.47,1.77-1.72a8.87,8.87,0,0,0-7.14-9.88A8.56,8.56,0,0,0,162.49,63c-1,4.27-.52,4.89,3.92,4.89Z"/><path class="cls-2" d="M328.23,278.05a3.63,3.63,0,0,1-3.86,3.72c-1.74,0-2.36.65-2.43,2.41-.08,2.2-1.11,3.83-3.66,3.82s-3.58-1.59-3.75-3.79c-.13-1.67-.67-2.41-2.45-2.44-2.27,0-3.85-1.33-3.89-3.68s1.49-3.63,3.85-3.56c1.79.06,2.4-.75,2.48-2.42.13-2.41,1.3-4.16,3.88-4.09,2.42.06,3.5,1.88,3.53,4.06s1,2.48,2.77,2.47C326.92,274.54,328.08,275.84,328.23,278.05Z"/><path class="cls-3" d="M75.67,32.33c1.89,6,5.17,10,11.91,11.68-6.51,2.05-10,5.58-11.83,11.76-1.93-6-5.19-9.84-12-11.62C70.43,42.19,74,38.5,75.67,32.33Z"/><path class="cls-4" d="M273,157.91v4q0,87.18.09,174.35c0,3.58-1.1,4.19-4.33,4.14-11.35-.19-22.7-.09-34-.07-5.42,0-6.95,1.47-7,6.81,0,11.6-.1,23.2.05,34.79,0,2.73-.59,3.6-3.47,3.6q-76.7-.15-153.4,0c-2.58,0-3.34-.63-3.34-3.29q.1-142.17,0-284.34c0-2.79.72-3.57,3.53-3.53,12.22.16,24.44.1,36.66,0a8.63,8.63,0,0,1,5.91,1.76,8.93,8.93,0,0,0,5.83,2.19c4.08-.25,3.81,2,3.77,4.8-.1,7.88,3.48,13,10.15,14.56a21.5,21.5,0,0,0,4.82.39c21.2,0,42.4.07,63.6,0,3.19,0,4.75.71,6.32,3.92,10,20.54,26.3,32.71,49.14,35.91A57.13,57.13,0,0,0,273,157.91ZM161.55,271q26.92,0,53.85,0c2.82,0,5.7-.23,5.62-3.8s-3-3.83-5.77-3.74H109a19.65,19.65,0,0,0-3.35.14,3.51,3.51,0,0,0-3.22,3.91,3.41,3.41,0,0,0,3.36,3.38c1.12.1,2.24.08,3.36.08Zm-.17-88.47h43.38l12.35,0c2.39,0,3.87-1.3,3.94-3.58s-1.48-3.6-3.76-3.86a22.7,22.7,0,0,0-2.61,0H108.83a14.77,14.77,0,0,0-3.71.27,3.36,3.36,0,0,0-2.67,3.6,3.44,3.44,0,0,0,3.2,3.53,26.88,26.88,0,0,0,3.36.09ZM122.59,195v-.1c-2.49,0-5-.09-7.46,0-6.59.27-10.72,4.13-11,10.7a150,150,0,0,0,0,15.29c.33,6.23,4.22,10.19,10.42,10.55a138.44,138.44,0,0,0,16,0,10.23,10.23,0,0,0,10-10.1c.23-5.46.23-10.95,0-16.41a10.29,10.29,0,0,0-9.8-9.92C128.07,194.85,125.32,195,122.59,195Zm67.33,18.43c0-2.36.05-4.72,0-7.09-.16-6.84-4.33-11.2-11.12-11.41-4.85-.15-9.71-.15-14.55,0-6.67.22-10.79,4.45-11,11.16q-.18,7.09,0,14.18c.17,6.51,4.13,10.83,10.61,11.2a141,141,0,0,0,15.66,0c6.27-.34,10.22-4.71,10.37-11C190,218.18,189.92,215.82,189.92,213.45Zm-49.25,88.26h0c0-2.37.06-4.73,0-7.09-.22-6.92-4.4-11.12-11.26-11.23q-7.09-.12-14.19,0c-6.52.12-10.78,4-11.14,10.58a150.16,150.16,0,0,0,0,15.3c.32,6.34,4.49,10.47,10.71,10.72,5.09.2,10.21.2,15.3,0a10.6,10.6,0,0,0,10.55-10.45C140.79,306.94,140.67,304.32,140.67,301.71Zm80.21-18.33c-2.49,0-5-.06-7.47,0-6.5.18-10.78,4.33-10.93,10.75-.12,5-.11,10,0,14.94.14,6.39,4.36,10.69,10.83,10.92,5,.18,10,.17,14.94,0,6-.19,10.49-4.36,10.79-10.27a156.23,156.23,0,0,0,0-16.05c-.33-6.23-4.71-10.14-11-10.3C225.61,283.33,223.25,283.38,220.88,283.38Zm-91.41-128c-7.34,0-14.68.05-22,0-2.7,0-4.95.67-5,3.68s2.17,3.86,4.87,3.85q22,0,44,0c2.63,0,4.87-.63,4.91-3.75s-2.12-3.79-4.81-3.77C144.14,155.45,136.81,155.42,129.47,155.42Zm-.57,95.88c7.46,0,14.93,0,22.39,0,2.62,0,4.92-.47,5-3.62.08-3.39-2.29-3.92-5.08-3.91q-21.83.06-43.66,0c-2.68,0-5,.66-5.06,3.63-.08,3.21,2.3,4,5.14,3.92C114.72,251.25,121.81,251.3,128.9,251.3Z"/><path class="cls-5" d="M52.2,240.05q0-72.77,0-145.52c0-2-.07-7.71,3.77-11.55,3.29-3.29,8.08-3.84,11.56-3.78l38.64.55a14.42,14.42,0,0,0-.65,3.46,14,14,0,0,0,.35,4.14l-39.2,0c-2-.17-3.9.07-5.14,1.31-1.69,1.7-1.3,4.52-1.3,5.12q0,146.64,0,293.3c0,4.89,1.53,6.36,6.57,6.36q81.56,0,163.12,0a7.81,7.81,0,0,0,5.95-2.49q21-21.08,42.07-42.05a8.57,8.57,0,0,0,2.6-6.66q-.09-90.92-.05-181.82a6.49,6.49,0,0,1,6.85-6.2c.84.07,1,.5,1.07,1.17,0,1,0,2,0,3,0,75.57,0,151.14.2,226.71,0,8.87-5.18,16-15.76,15.94C204.43,400.82,136,401,67.51,401c-10.34,0-15.3-5-15.3-15.37Q52.2,312.82,52.2,240.05Z"/><path class="cls-3" d="M264.81,150.36a54,54,0,0,1-54.59-54.83c.12-32.95,26.42-54.75,55.06-54.58,30.1.18,54.87,24.8,54.59,54.88C319.58,127.83,293.8,151,264.81,150.36Zm-34-53.17a9.81,9.81,0,0,0,2.92,7c5,5.52,10.08,11,15.05,16.6,5.69,6.39,12.66,6.69,18.78.61q17.36-17.26,34.61-34.61c5.48-5.49,5.95-12.9,1.21-17.6-5-5-11.77-4.52-17.48,1.17-8.2,8.17-16.48,16.27-24.51,24.62-2.31,2.41-3.57,2.09-5.42-.27a56.43,56.43,0,0,0-6.05-6.6A11,11,0,0,0,237.39,86C233,87.91,230.83,91.55,230.77,97.19Z"/><path class="cls-2" d="M162.44,75.4c13.33,0,26.66,0,40,0,2.34,0,3.57.27,2.45,3a30.5,30.5,0,0,0-1.46,5.77c-1.17,6.35-1.14,6.35-7.67,6.35q-36.83,0-73.63,0c-3.17,0-5.61-1.09-7.09-3.89a7.5,7.5,0,0,1,.62-8.11c1.71-2.55,4.28-3.15,7.18-3.15C136,75.42,149.24,75.4,162.44,75.4Z"/><path class="cls-4" d="M166.65,98.63c10.84,0,21.69.06,32.53,0,2.38,0,3.69.22,3.45,3.11a14.26,14.26,0,0,0,.78,5.86c.93,2.64.08,3-2.38,3-21.07-.08-42.13,0-63.2-.06a7.77,7.77,0,0,1-7.06-11.11c.68-1.39,2-.73,3-.74C144.71,98.61,155.68,98.63,166.65,98.63Z"/><path class="cls-4" d="M170.79,41a23.93,23.93,0,0,1,23.62,24.72c-.07,1.69-.64,2-2.17,2.11-4.92.28-4.92.34-5.61-4.77-1.17-8.59-8.48-14.87-16.75-14.38a15.76,15.76,0,0,0-15.12,15.93c0,4.87-3.17,2.77-5.27,3.17-2.89.54-2.89-1.32-2.8-3.37C147.26,50.86,157.55,40.85,170.79,41Z"/><path class="cls-6" d="M235.25,378.77c0-9.62,0-19.42,0-29.22,0-1.2.44-1.85,1.73-1.85h29.32Z"/><path class="cls-7" d="M170.89,67.87h-4.48c-4.44,0-4.94-.62-3.92-4.89a8.56,8.56,0,0,1,9.75-6.69,8.87,8.87,0,0,1,7.14,9.88c-.14,1.25-.49,1.76-1.77,1.72C175.37,67.82,173.13,67.87,170.89,67.87Z"/><path class="cls-1" d="M161.55,271H109.18c-1.12,0-2.24,0-3.36-.08a3.41,3.41,0,0,1-3.36-3.38,3.51,3.51,0,0,1,3.22-3.91,19.65,19.65,0,0,1,3.35-.14H215.25c2.81-.09,5.69.27,5.77,3.74s-2.8,3.81-5.62,3.8Q188.47,271,161.55,271Z"/><path class="cls-1" d="M161.38,182.56H109a26.88,26.88,0,0,1-3.36-.09,3.44,3.44,0,0,1-3.2-3.53,3.36,3.36,0,0,1,2.67-3.6,14.77,14.77,0,0,1,3.71-.27H214.68a22.7,22.7,0,0,1,2.61,0c2.28.26,3.83,1.54,3.76,3.86s-1.55,3.58-3.94,3.58l-12.35,0Z"/><path class="cls-1" d="M122.59,195c2.73,0,5.48-.17,8.2,0a10.29,10.29,0,0,1,9.8,9.92c.24,5.46.24,10.95,0,16.41a10.23,10.23,0,0,1-10,10.1,138.44,138.44,0,0,1-16,0c-6.2-.36-10.09-4.32-10.42-10.55a150,150,0,0,1,0-15.29c.32-6.57,4.45-10.43,11-10.7,2.48-.11,5,0,7.46,0Zm.06,7.49c-12.37.14-10.86-1.62-10.88,11,0,11.67-1.35,10.37,10.38,10.35,12.57,0,10.87,1.47,10.93-10.91C133.14,201.42,134.16,202.53,122.65,202.51Z"/><path class="cls-1" d="M189.92,213.45c0,2.37,0,4.73,0,7.09-.15,6.26-4.1,10.63-10.37,11a141,141,0,0,1-15.66,0c-6.48-.37-10.44-4.69-10.61-11.2q-.18-7.08,0-14.18c.18-6.71,4.3-10.94,11-11.16,4.84-.16,9.7-.16,14.55,0,6.79.21,11,4.57,11.12,11.41C190,208.73,189.92,211.09,189.92,213.45Zm-18.43-10.93c-2.11,0-4.23.06-6.34,0-3.12-.12-4.61,1.21-4.53,4.42.11,4.23.07,8.46,0,12.69,0,2.74,1.1,4.25,3.94,4.25h13.82c2.57,0,3.94-1.22,3.94-3.86,0-4.48,0-9,0-13.44,0-2.82-1.35-4.1-4.13-4.05C176,202.55,173.73,202.52,171.49,202.52Z"/><path class="cls-1" d="M140.67,301.71c0,2.61.12,5.23,0,7.84A10.6,10.6,0,0,1,130.1,320c-5.09.19-10.21.19-15.3,0-6.22-.25-10.39-4.38-10.71-10.72a150.16,150.16,0,0,1,0-15.3c.36-6.56,4.62-10.46,11.14-10.58q7.1-.12,14.19,0c6.86.11,11,4.31,11.26,11.23.07,2.36,0,4.72,0,7.09Zm-18.07-10.9c-2,0-4,0-6,0-4.18,0-5.07.82-5.17,5s0,8,0,12c0,3,1.43,4.71,4.51,4.74q6.36.06,12.71,0c3.23,0,4.77-1.58,4.49-4.94-.17-2.1,0-4.23,0-6.35C133.09,289.7,134.15,290.83,122.6,290.81Z"/><path class="cls-1" d="M220.88,283.38c2.37,0,4.73-.05,7.1,0,6.33.16,10.71,4.07,11,10.3a156.23,156.23,0,0,1,0,16.05c-.3,5.91-4.77,10.08-10.79,10.27-5,.16-10,.17-14.94,0-6.47-.23-10.69-4.53-10.83-10.92-.1-5-.11-10,0-14.94.15-6.42,4.43-10.57,10.93-10.75C215.9,283.32,218.39,283.38,220.88,283.38ZM210,301.31c0,2.12.1,4.24,0,6.36-.19,3.14,1.26,4.72,4.31,4.78q6.56.1,13.09,0c2.64,0,4.23-1.44,4.27-4.16q.1-6.72,0-13.46c0-2.69-1.35-4.13-4.2-4-2.36.08-4.73,0-7.1,0C208.85,290.82,210,289.77,210,301.31Z"/><path class="cls-1" d="M129.47,155.42c7.34,0,14.67,0,22,0,2.69,0,4.86.61,4.81,3.77s-2.28,3.75-4.91,3.75q-22,0-44,0c-2.7,0-4.89-.89-4.87-3.85s2.28-3.7,5-3.68C114.79,155.47,122.13,155.42,129.47,155.42Z"/><path class="cls-1" d="M128.9,251.3c-7.09,0-14.18-.05-21.27,0-2.84,0-5.22-.71-5.14-3.92.08-3,2.38-3.64,5.06-3.63q21.83.09,43.66,0c2.79,0,5.16.52,5.08,3.91-.08,3.15-2.38,3.63-5,3.62C143.83,251.27,136.36,251.3,128.9,251.3Z"/><path class="cls-1" d="M230.77,97.19c.06-5.64,2.22-9.28,6.62-11.17a11,11,0,0,1,12.49,2.11,56.43,56.43,0,0,1,6.05,6.6c1.85,2.36,3.11,2.68,5.42.27,8-8.35,16.31-16.45,24.51-24.62,5.71-5.69,12.46-6.13,17.48-1.17,4.74,4.7,4.27,12.11-1.21,17.6q-17.26,17.34-34.61,34.61c-6.12,6.08-13.09,5.78-18.78-.61-5-5.58-10-11.08-15.05-16.6A9.81,9.81,0,0,1,230.77,97.19Zm11.31-5a4.08,4.08,0,0,0-3.5,2.43,4.38,4.38,0,0,0,1.09,4.8c4.8,5.23,9.54,10.51,14.33,15.75,3.41,3.73,5.06,3.79,8.58.27q17.06-17,34.08-34.07a14.54,14.54,0,0,0,1.74-2,3.81,3.81,0,0,0-4.79-5.58,14.55,14.55,0,0,0-3.16,2.56Q276.78,90,263.17,103.58c-4,4-5.3,4-9.05-.07-2.87-3.12-5.74-6.23-8.56-9.38A4.54,4.54,0,0,0,242.08,92.24Z"/><path class="cls-2" d="M122.65,202.51c11.51,0,10.49-1.09,10.43,10.42-.06,12.38,1.64,10.9-10.93,10.91-11.73,0-10.39,1.32-10.38-10.35C111.79,200.89,110.28,202.65,122.65,202.51Z"/><path class="cls-2" d="M171.49,202.52c2.24,0,4.48,0,6.72,0,2.78,0,4.15,1.23,4.13,4.05,0,4.48,0,9,0,13.44,0,2.64-1.37,3.85-3.94,3.86H164.57c-2.84,0-4-1.51-3.94-4.25.06-4.23.1-8.46,0-12.69-.08-3.21,1.41-4.54,4.53-4.42C167.26,202.58,169.38,202.52,171.49,202.52Z"/><path class="cls-2" d="M122.6,290.81c11.55,0,10.49-1.11,10.5,10.36,0,2.12-.14,4.25,0,6.35.28,3.36-1.26,4.91-4.49,4.94q-6.36.06-12.71,0c-3.08,0-4.51-1.73-4.51-4.74,0-4-.07-8,0-12s1-4.92,5.17-5C118.62,290.79,120.61,290.81,122.6,290.81Z"/><path class="cls-2" d="M210,301.31c0-11.54-1.12-10.49,10.35-10.5,2.37,0,4.74.07,7.1,0,2.85-.1,4.17,1.34,4.2,4q.09,6.74,0,13.46c0,2.72-1.63,4.12-4.27,4.16q-6.54.1-13.09,0c-3.05-.06-4.5-1.64-4.31-4.78C210.07,305.55,210,303.43,210,301.31Z"/><path class="cls-4" d="M242.08,92.24a4.54,4.54,0,0,1,3.48,1.89c2.82,3.15,5.69,6.26,8.56,9.38,3.75,4.07,5,4.08,9.05.07Q276.82,90,290.45,76.45a14.55,14.55,0,0,1,3.16-2.56,3.81,3.81,0,0,1,4.79,5.58,14.54,14.54,0,0,1-1.74,2q-17,17-34.08,34.07c-3.52,3.52-5.17,3.46-8.58-.27-4.79-5.24-9.53-10.52-14.33-15.75a4.38,4.38,0,0,1-1.09-4.8A4.08,4.08,0,0,1,242.08,92.24Z"/><circle class="cls-8" cx="334.79" cy="314.61" r="3.68"/><circle class="cls-8" cx="106.41" cy="29.31" r="3.68"/><rect class="cls-1" x="201.68" y="194.78" width="37.34" height="36.78" rx="10.2"/><rect class="cls-3" x="208.82" y="201.81" width="23.08" height="22.73" rx="4.3"/><path class="cls-1" d="M214.52,207.59l.83-.84a3.13,3.13,0,0,1,4.39-.1l6.34,5.95,13.08-13.45a3.14,3.14,0,0,1,4.53,0l0,0a3.15,3.15,0,0,1,0,4.33l-15.7,16.73a3.15,3.15,0,0,1-4.43.15l-9-8.33A3.13,3.13,0,0,1,214.52,207.59Z"/><rect class="cls-1" x="153.18" y="283.48" width="37.34" height="36.78" rx="10.2"/><rect class="cls-3" x="160.31" y="290.5" width="23.08" height="22.73" rx="4.3"/><path class="cls-1" d="M166,296.28l.82-.84a3.15,3.15,0,0,1,4.4-.09l6.34,5.95,13.08-13.46a3.14,3.14,0,0,1,4.53,0l0,.05a3.15,3.15,0,0,1,0,4.32L179.54,309a3.14,3.14,0,0,1-4.43.15l-9-8.32A3.15,3.15,0,0,1,166,296.28Z"/></svg>