<svg id="Component_507_1" data-name="Component 507 – 1" xmlns="http://www.w3.org/2000/svg" width="20.998" height="20.993" viewBox="0 0 20.998 20.993">
  <path id="Path_1544" data-name="Path 1544" d="M823.523,819.778a2.1,2.1,0,0,0-.254-.177,2.633,2.633,0,0,0,.261-.193q2.452-2.447,4.9-4.9a1.679,1.679,0,0,0,.387-2,2.171,2.171,0,0,0-.388-.523q-1.375-1.393-2.766-2.77a1.691,1.691,0,0,0-2.514,0q-2.453,2.446-4.9,4.9a2.6,2.6,0,0,0-.168.207c-.081-.076-.135-.124-.186-.175-1.044-1.043-2.1-2.075-3.127-3.134a5.238,5.238,0,0,0-2.632-1.49c-1.069-.25-2.131-.532-3.2-.8-.507-.128-.68-.057-.942.387v.328c.137.512.277,1.023.41,1.536.178.687.354,1.374.524,2.062a4.7,4.7,0,0,0,1.282,2.246q1.634,1.626,3.261,3.26c.052.052.1.107.208.219a1.019,1.019,0,0,0-.2.122c-1.562,1.558-3.118,3.123-4.686,4.676a2.5,2.5,0,0,0-.8,1.253v.492a2.389,2.389,0,0,0,.787,1.258q1.165,1.136,2.3,2.3a2.393,2.393,0,0,0,1.258.787h.492a2.526,2.526,0,0,0,1.268-.811c1.543-1.557,3.1-3.1,4.646-4.653a3.158,3.158,0,0,0,.2-.257,1.867,1.867,0,0,0,.171.256c1.466,1.47,2.94,2.932,4.4,4.407a3.291,3.291,0,0,0,1.971,1.031.2.2,0,0,1,.055.026h.656c.152-.034.306-.063.456-.1a3.111,3.111,0,0,0,1.427-5.2C826.577,822.811,825.047,821.3,823.523,819.778Zm-12.044-4.983a3.829,3.829,0,0,1-1.29-1.833c-.253-.927-.479-1.861-.727-2.836l1.757.441c.231.058.462.119.693.178a3.781,3.781,0,0,1,2.222,1.4Zm.968.9,2.6-2.6,2.087,2.092-2.6,2.595Zm7.191,5.538q-.827-.826-1.653-1.652a.62.62,0,1,0-.866.873c.6.6,1.2,1.2,1.783,1.776l-.947.96c-.28-.281-.578-.582-.878-.88a.619.619,0,1,0-.869.867c.3.3.6.594.89.879l-.995,1a.676.676,0,0,0-.1-.174q-.843-.852-1.695-1.7a.6.6,0,0,0-.731-.13.562.562,0,0,0-.321.607.9.9,0,0,0,.223.42c.541.56,1.1,1.106,1.649,1.655a1.7,1.7,0,0,0,.165.131l-.972.971c-.286-.29-.579-.6-.892-.893a.9.9,0,0,0-.4-.218.569.569,0,0,0-.627.321.611.611,0,0,0,.121.718c.311.316.63.624.929.919-.211.23-.394.461-.61.654a.422.422,0,0,1-.593-.061c-.223-.212-.436-.433-.654-.65q-1.073-1.072-2.145-2.145a.492.492,0,0,1,0-.823l14.538-14.535c.307-.307.529-.307.838,0q1.364,1.361,2.725,2.724a.489.489,0,0,1,0,.809c-.149.15-.3.3-.451.447-.009.008-.024.009-.065.024-.244-.248-.5-.506-.75-.762q-.52-.523-1.043-1.043a.619.619,0,1,0-.873.866q.824.828,1.653,1.651a1.175,1.175,0,0,0,.165.12l-.975.974-.908-.912a.614.614,0,1,0-.889.845c.263.278.54.542.81.813.047.047.092.1.128.137l-.965.963c-.16-.172-.326-.361-.5-.54q-.641-.649-1.29-1.29a.615.615,0,0,0-.911-.046.622.622,0,0,0,.041.911c.608.609,1.218,1.215,1.816,1.812l-.955.953-.91-.915a.615.615,0,1,0-.891.847c.259.272.53.532.8.8.047.048.093.1.124.131l-.923.923C819.745,821.329,819.69,821.28,819.638,821.228Zm.236,1.922,2.624-2.623,2.537,2.531-2.629,2.629Zm7.308,4.742a1.833,1.833,0,0,1-2.465.111c-.5-.432-.92-.949-1.372-1.423l2.632-2.632c.473.492.994.962,1.425,1.5A1.833,1.833,0,0,1,827.182,827.892Z" transform="translate(-808 -808.657)" fill="#fff"/>
</svg>
